/* XPM */
static char *result[] = {
/* columns rows colors chars-per-pixel */
"64 64 98 2 ",
"   c #150B07",
".  c #150A08",
"X  c #1A0D0B",
"o  c #1E110E",
"O  c #1F1312",
"+  c #22130F",
"@  c #241512",
"#  c #291713",
"$  c #2C1915",
"%  c #2D1C19",
"&  c #321B16",
"*  c #341E19",
"=  c #391F19",
"-  c #3D2117",
";  c #35211C",
":  c #3C231D",
">  c #362421",
",  c #3C2621",
"<  c #3E2924",
"1  c #42251E",
"2  c #45281F",
"3  c #4A291F",
"4  c #422721",
"5  c #442A23",
"6  c #4B2C24",
"7  c #442F29",
"8  c #4D2E29",
"9  c #512E25",
"0  c #512F28",
"q  c #4C3027",
"w  c #453029",
"e  c #4E312B",
"r  c #503027",
"t  c #5B3126",
"y  c #54332C",
"u  c #5B362D",
"i  c #57392F",
"p  c #5C382E",
"a  c #4C3531",
"s  c #563631",
"d  c #5A3731",
"f  c #563A33",
"g  c #5C3A33",
"h  c #5D3E39",
"j  c #6B3827",
"k  c #61362B",
"l  c #6C3728",
"z  c #633A2E",
"x  c #6C3B2D",
"c  c #733D2D",
"v  c #783F2C",
"b  c #633D33",
"n  c #6C3E33",
"m  c #643E39",
"M  c #693F39",
"N  c #723F31",
"B  c #574037",
"V  c #5F423D",
"C  c #76402F",
"Z  c #7A412E",
"A  c #664035",
"S  c #6D4135",
"D  c #64413B",
"F  c #6C433B",
"G  c #744234",
"H  c #7B4535",
"J  c #7E4837",
"K  c #73453B",
"L  c #7A463A",
"P  c #75483E",
"I  c #7C493D",
"U  c #654441",
"Y  c #6A4742",
"T  c #6D4A45",
"R  c #6F4C48",
"E  c #714740",
"W  c #744B43",
"Q  c #7B4D43",
"!  c #734E49",
"~  c #7A4F49",
"^  c #7D5046",
"/  c #75514B",
"(  c #7C524B",
")  c #7C5550",
"_  c #7F5852",
"`  c #804937",
"'  c #824C3C",
"]  c #89503F",
"[  c #814E42",
"{  c #835145",
"}  c #8A5344",
"|  c #83544B",
" . c #89564A",
".. c #85584F",
"X. c #8C594C",
"o. c #815750",
"O. c #855A51",
"+. c #885C52",
/* pixels */
"h b D A V g b A h b m A D b ; F W K E E K ! ^ Q P K W P W I P 5 8 W I Q ' W I I I I P L L L G L P % D M A F F M M F F M F F K M ",
"| ( ..| | | ^ ( ! ^ ^ ^  .| , Y | Q | | | ^ ~ {  .^ [ Q Q [ W 8 8 [ Q { { { [ [ ' [ I [ I P I I L @ b F F E K K K F K K K E P P ",
"O...O.O.| ( | O.| | | ....| > F ~ | ^ | Q ( W | { | ( {  .| Q : 8 [ Q { Q ^ [ Q ^ K K Q [ ' I P K @ b F F F K K E E F W W K P P ",
"( | | O.O.( O.+.+.O.+.O.O...> T ( (  .| W  .[ { ^ ^ |  ... .Q 5 8 [ Q { { [ [ I L { K I { [ Q L K O b F F K F K K F K K K F K K ",
"( +.+.+.+.O.O.+.| O.....| | > E W ^ ^ Q | ^ W ^ ~ ^ Q Q W P K , q P P F K K S M A S b A x b b b g + s y f d g u s u u y y u s d ",
"& * ; & & * & & ; * * ; * * @ # $ $ $ $ & & & # $ : : : : 1 : : : : : 2 : : : : : @ 1 : : 1 1 : : 5 4 : 1 1 : : : ; # ; : 4 4 : ",
"Y Y F F T Y < F Q W | ^ { { ^ {  .| ^  .{ } { q 8 Q Q Q W Q I I I I I I I I L I K ; G L L I L L H L I L L L I L H L d h M N F N ",
"+.O./ O.O.| : b {  .X.X.X. .X.X.X.{  .X.X.} } e q Q [ Q [ [ Q [ I ^ { { I | I I P % L I I I ' ' I J J I ' [ ' ' I H 6 5 K K K K ",
"O.O.....( ..& A  . . . ...{ X.{  .|  . .X.} } q y [ Q { [ Q ' W I P { ^ W [ [ [ W & I Q L Q ' I N [ L L ` [ [ [ I I 5 y K L L F ",
"O.O..._ _ o.> A  .{ X.X.X.| X.{ |  . .X.X.X. .5 8 [ | { | [ Q Q |  .| { Q { [ { I & I Q I [ [ I [ L [ [ [ [ [ [ [ J 8 B F K P P ",
"O._ ..+...( ; S W ^ ^ Q ^ I ^ P ^ I I I I L K ; < m A m M M b b b m b p k k b k y $ y u k u d d k u k z z n M n b k ; > 1 0 6 r ",
"# % & & % & + % & @ + $ # # + # $ % $ $ ; # $ $ % < ; & * & * + : : : 1 4 , 4 1 2 5 5 5 5 5 6 4 * O : 4 1 1 5 4 1 1 1 5 W u 5 5 ",
"! ! W W R R T ! R R R T R U ; ^ ^ W Q W W E F K Y F Y F U Y Y % F I Q [ [ ' [ E ' [ Q [ ' L [ L M % M N K K K N N N N N G K K H ",
"_ _ O./ ( ( ( _ / ) / ) ( T % ^ ( | | ( ^ Y W W W W T W Y T Y + A { [ [ | [ [  .{ [  .{ } [ [ [ b X F E [ N Q L Q K Q I L L L I ",
"( ) ! / / ( ) ) ) ) / ( / T % ~ ( W / ^ ! W ~ W ! F W ! W T Y o F Q [ | | |  .{ [ { { [ { [ [ [ M X M Q ~ Q Q Q L Q I L L I L L ",
"_ ( ..( ( ( _ ) ) / ) / / U % ^ ~ ( ^ | / ^ ~ / ~ ! ! ! ! ! R O M [ | } { { { [ | { } { [ [ [ [ d X M K Q [ N ` Q L I I K L L L ",
"/ ! ^ R W Y Y Y Y Y U U h f % b m h g b h h g i f f s g f f s @ q y y u u u i y s y y u y y u 0 4 o 0 0 9 0 0 0 y 9 0 8 9 r 3 9 ",
"$ $ $ $ # # o @ # % % % % * * > > & ; ; ; % ; # * , 4 , , 5 5 4 < 8 < < 5 < 5 w , % e 8 8 8 0 s 0 0 f g 8 0 0 y y y < u u y u r ",
"W ( / ^ ! W % U R ! R R R R R R R T ! / T W Y < g P K W W W K K K E K K P P P P F , I L P Q W Q W L W P Q L L L K K 5 F L G L S ",
"| | O./ ( ! % D R R ! ) ! / ! / / ! ! ! / ! ! > u W ~ Q ~ | ~ Q ! ^ Q Q W ^ ^ P F * W I [ W { Q Q L W Q W Q Q W W L 5 M L L G L ",
"( o.o.~ ..( ; D / R / R / / / R R ! ! ! ! / ~ , s ~ Q | ~ { ~ Q Q Q W I K ^ P ^ D ; W Q ~ [ { [ [ W Q Q L E Q [ I P q A L K L L ",
"O.O.o.~ ( | % D / / / / / ! R ! ! ! ! ) / / ! > g ~ W ~ ~ ~ { ~ ^ Q W I ^ I ^ ^ m * Q Q Q { Q ~ Q Q Q Q Q Q Q Q I K 5 A L L K L ",
"/ ! ! W ! R O f U Y U U U V D D h h V U m m g % 5 d d d b d d d r u i i y y y y 5 & y r 8 8 8 9 9 8 5 6 6 5 8 6 5 5 % : 1 : : : ",
": : > * * * * > 7 : * > > % + 4 5 4 5 5 5 6 5 5 6 y 6 6 6 5 6 # q y y r y y t u u u g m d k u t 0 > u u k k z z u u p t z t y u ",
"W W W W W W W W W W W L E m & J I ' ' ' I J ' J ' ' ' ' ' ' ' & G I ' ] ] } ' ' ] ` ] ] ' ] ` ] W ; N L ` ' ' } J J I ` I L I H ",
"( o.~ | { ~ W Q Q W ~ ~ ~ h # ' [ [  .} ] } { } { } X.} [ } ' & G ' ' I ' ' ] ] ] ] ] ] ' ] ] ' N = ' ' [ ' [ ' ' ' ' ' ' ` ' ` ",
"~ ~ ~ W ~ ~ ~ W Q ~ Q ~ Q s $ ' [ } } } } } } } } } } } } } [ & L ' ' ] ] ] } } } ] } ] ] } ] ] L = ' ' [ [ ' ' ' ' ' I ' ` ' ' ",
"~ ~ ~ | ~ W ~ ~ Q W Q [ ~ s & [ [ }  .} } } } X.} } } } } [ [ & G ' ] ] ] } ] } } ] } } ] ] ] ] L 4 I ' ' [ ' [ ' ' I ' L ' I L ",
"s f f m f m s g g m m m m 5 % u u u u z z u z z b z k z z 0 t + 6 6 6 q q r 9 9 6 6 6 6 6 6 9 9 1 % 4 4 5 5 1 : = 5 4 = 4 4 3 1 ",
"5 4 : 5 > * % & 5 5 5 0 0 8 e u 0 0 0 8 6 0 q : 4 8 8 8 0 0 0 0 B P y i y y y i 8 % s a 8 s 8 0 s s d d y y 0 f s y 4 a 0 8 8 9 ",
"W Q Q W Q W d 9 Q Q [ [ { [ [ Q [ [ [ [ { [ { 0 8 Q L I Q [ Q Q ' I I I I I I I K @ F Y E E K E W M K F K E Y K E M 5 s b M M M ",
"| Q | Q Q Q y 8 [ [ { | | { } }  .}  .} } } } u 6 W W Q W [ Q [ Q { ' ^ { ^ ' { K @ m K F E K K W W E W E K K K W K 8 8 M n b M ",
"| Q ~ { [ W s 0 [ { { Q { Q [ { } } { [ } [ [ r 8 Q Q [ Q { { [ Q Q { Q I ^ I { K @ m K E W P E E E ! K K Y P F P K 8 e A M n b ",
"{ ~ { Q { W 8 0 | | { | {  .{ { | [ { [  .{ } y 8 [ [ Q ~ | { Q { { { { {  .{ { K O M W K E W F W K W K P K K F F K 5 e A F b b ",
"4 5 6 4 5 5 & * 1 , 5 5 5 6 5 5 6 6 6 9 8 6 6 # % : 1 1 : 4 4 1 1 1 : 1 1 1 1 : = @ = = = * : = & ; ; : : * ; ; ; * # % & & & & ",
"f h s s s d s s f y d s s 7 % s u s y y d s B u y g b s u d s * h u g b g p g p d u b b b b m b y w b m g b b u u s u u D g b s ",
"W Q Q Q W I K L P L L W W u $ K K K P K I I K I L L I I L L L + G I ` I ' ' H J H ` ` L ` ` J H j % S L H L G S n n F G K G N N ",
"Q [ [ W P Q [ Q W K L Q I r $ L P L Q L Q I Q I I [ [ I [ I L @ P ' ` ' ' ` ' ' ' ' ` ` ` ' ` ` z % G L L K K S G K N N n M M F ",
"W [ W Q Q I I Q I Q W I P u $ K K N L K Q Q I I L [ [ I ' Q L # K ' J ' ' ` ' ' ' ' ` ' ' ' ' ` x ; K L L K G H G M M G S G G N ",
"[ Q [ W Q W K I W Q Q Q I y & S K K W L L I Q Q I [ I [ I L L + G ' ' ' ' ' ' ' ` ' ' ` ` ' ` H z ; G P K I K K L G K K G S M K ",
"4 , 4 4 4 5 4 5 , 1 : : 1 $ + : = * : 1 1 1 4 6 6 8 6 8 8 6 5 X 6 5 2 3 6 1 6 6 6 5 3 6 9 9 3 3 - @ ; : - : - : * & & = & * & : ",
"M b b z m d 4 4 u i u d g p b F E b k b g u u ; a s y s r u f s h F s s s f u d * s d b d g b b p u A F A b m b b z < g b z b b ",
"K Q Q W K L 4 5 L J L I H I I L L H I [ I G S $ u K L S F K K L n K K M n K n K 5 u H H L J L H H C H C H Z G H H x & n N N G n ",
"L K L L Q N : 5 K I I I I ' I ' K I ' ' I H M # s K P K L P P L L K K N P M K K 5 k I I J J J ' I J H H H J J J G H & S G G N G ",
"M L Q L N N > 6 G I L H J I L L L L I ' J G G $ y F L L P I K F W L P G F K K N 5 k H J I J I J J H H I H G H L H N ; G N N N N ",
"b K L I Q N : 5 I J I I I L P S J ' [ ' ' L L % u K P P L I I I L K J L G K N K 5 k L H L I J J L L H H L J J J H G ; G L G N K ",
"# $ $ & & $ @ # : ; = = : $ # & $ & * : : ; = @ # > & ; : * ; : = & & & * & & $ $ 4 0 6 6 6 6 6 2 : 2 1 1 2 1 1 : = # : 1 : : = ",
"S G F G M F K E Q K F A D 8 % V V h h g h g h g d D h h V m D # m b z b b b b n M F K b b k z A 5 < g g g g u i A b A K F b b b ",
"H I I K I J I I I I { I I u @ A Y M m M M M m F F F M K F F F @ A Z H J J J H J H J H J ` J ` J 6 ; S S n n N N N N N N H v H N ",
"L G I I K J I L I ^ I I I u @ F M F Y M m F F M F E Y E W K F @ j H H H H J J J H ` H J ` ` ` J 9 5 b A S G G M N M G N H N H H ",
"H L I I I I I I I I I K L u O F F Y F F F Y F E F E F E K F F O A H J H J J J L J H J ' J ` J H 6 : M n M N G N G N N H I N H v ",
"S S G S S K P L K I I I K u O D Y F E Y Y M M Y F F F F F F F @ A H H H J J J J J J J J J ' ` G r 4 M G S N M G N N G G v H H N ",
"% % & % @ @ o @ @ @ + # @ @ X % * % % $ % # # @ # % # # # @ # @ # : ; ; ; & & % & & & & & & & # $ # : & % $ $ & & & & & * & & & ",
"h h A D D f ; b M M b b d b d b F b D b A h f f b K K b A F S W A S A A S F A F f A A z z p z A b A F S z A A A A 1 i u k b k b ",
"b b M S M 6 @ M H M N n G K K n G L I K S M d < N G G H C G H x G C C C G C C C : C Z C c x C C x x x x C c H c x 3 8 l l l l x ",
"p m b S F u X n K N b n K n N n N K I K G n u , G G G G n L I G C S G C H G G G & x H G C S C L Z H c G H G G c v 3 6 v v c l c ",
"M b m M A 0 X N L L K n G G S M M G [ I K n g : G L H G G L J H S G H G G H Z G ; C H C C c C C c C x C C G C C c 3 q C j j j j ",
"b b b A M y @ M P L K G P K N G L K I L G K g , L I I I J L L J H G J G H G G C ; S G H G x G G G C S C G x C C c 3 5 C C C j C ",
"= > : > > > % * 5 ; > & & $ % ; : ; : , , ; % # % : ; : ; ; & ; ; & - ; : < 5 : % 1 5 2 1 5 : 1 : - - - & = & - & + & q : - : : ",
"N M z x n x x z n K G S n 0 > M n G M n n x x n A S G G S b g % A A S K S x x S C S x x L L S S : f A S S G G S S S S C C P G L ",
"M G x G L K n n G I L N x y # n G n G x c G G C C L J I G c b   k c v c x c G c N c c H J C C c 5 ; j C v c l l v v c Z C Z Z C ",
"L M n G L n n n G K L N n 0 @ x G G G n G G H S x G I H C x z X u c N G x C c H N x c H H C c C : ; j C C c l v v v v j C C H v ",
"G K n G K G n N K K G N N 9 # x G L n c G H C S S G ` L N S x   t c N c c c c G C x c H H C C j 1 ; c Z v j j v c C c l C Z Z C ",
"u d u u u t t u u k k k k 2 # u k k z z z b A x C S H G N c k . 9 c c c c G N c C x C J G C C j # - j C v x c c v c j c C Z Z v "
};
